<svg width="751" height="784" viewBox="0 0 751 784" fill="none" xmlns="http://www.w3.org/2000/svg">
<path d="M113.521 552V448.727H154.266C162.065 448.727 168.721 450.122 174.234 452.913C179.781 455.669 184 459.586 186.891 464.662C189.816 469.705 191.278 475.638 191.278 482.462C191.278 489.32 189.799 495.22 186.841 500.162C183.883 505.07 179.596 508.835 173.982 511.457C168.402 514.08 161.645 515.391 153.711 515.391H126.43V497.842H150.181C154.35 497.842 157.812 497.271 160.569 496.128C163.326 494.985 165.376 493.27 166.721 490.984C168.099 488.698 168.788 485.858 168.788 482.462C168.788 479.033 168.099 476.142 166.721 473.789C165.376 471.436 163.309 469.654 160.518 468.444C157.762 467.2 154.282 466.578 150.08 466.578H135.356V552H113.521ZM169.293 505.003L194.96 552H170.856L145.744 505.003H169.293ZM225.552 553.462C220.61 553.462 216.206 552.605 212.34 550.891C208.474 549.143 205.415 546.571 203.163 543.175C200.944 539.746 199.835 535.477 199.835 530.367C199.835 526.064 200.625 522.45 202.205 519.526C203.785 516.601 205.936 514.248 208.659 512.466C211.382 510.684 214.475 509.339 217.938 508.432C221.434 507.524 225.098 506.885 228.931 506.516C233.435 506.045 237.066 505.608 239.823 505.205C242.579 504.768 244.58 504.129 245.823 503.288C247.067 502.448 247.689 501.204 247.689 499.557V499.254C247.689 496.061 246.681 493.59 244.664 491.842C242.68 490.094 239.856 489.219 236.192 489.219C232.326 489.219 229.25 490.077 226.964 491.791C224.678 493.472 223.165 495.59 222.426 498.145L202.558 496.531C203.566 491.825 205.55 487.757 208.508 484.328C211.466 480.866 215.282 478.21 219.955 476.361C224.661 474.478 230.107 473.537 236.293 473.537C240.596 473.537 244.714 474.041 248.647 475.05C252.614 476.058 256.127 477.621 259.186 479.739C262.279 481.857 264.716 484.58 266.498 487.908C268.28 491.203 269.171 495.153 269.171 499.759V552H248.799V541.259H248.193C246.95 543.68 245.285 545.814 243.201 547.663C241.117 549.479 238.612 550.907 235.688 551.95C232.763 552.958 229.384 553.462 225.552 553.462ZM231.704 538.637C234.864 538.637 237.654 538.015 240.075 536.771C242.495 535.494 244.395 533.779 245.773 531.628C247.151 529.476 247.84 527.039 247.84 524.316V516.097C247.168 516.534 246.244 516.937 245.067 517.307C243.924 517.643 242.63 517.962 241.184 518.265C239.739 518.534 238.293 518.786 236.848 519.021C235.402 519.223 234.091 519.408 232.914 519.576C230.393 519.946 228.191 520.534 226.308 521.341C224.426 522.148 222.964 523.24 221.921 524.619C220.879 525.963 220.358 527.644 220.358 529.661C220.358 532.586 221.417 534.821 223.535 536.368C225.687 537.881 228.41 538.637 231.704 538.637ZM324.195 474.545V490.682H277.55V474.545H324.195ZM288.14 455.989H309.622V528.199C309.622 530.182 309.924 531.729 310.529 532.838C311.134 533.914 311.975 534.67 313.05 535.107C314.16 535.544 315.437 535.763 316.883 535.763C317.891 535.763 318.9 535.679 319.908 535.511C320.917 535.309 321.69 535.158 322.228 535.057L325.607 551.042C324.531 551.378 323.018 551.765 321.068 552.202C319.118 552.672 316.748 552.958 313.958 553.059C308.781 553.261 304.243 552.571 300.343 550.991C296.477 549.411 293.468 546.957 291.317 543.629C289.165 540.301 288.106 536.099 288.14 531.023V455.989ZM369.814 553.513C361.847 553.513 354.989 551.899 349.24 548.672C343.525 545.411 339.121 540.805 336.029 534.855C332.936 528.871 331.389 521.795 331.389 513.626C331.389 505.658 332.936 498.666 336.029 492.648C339.121 486.631 343.475 481.941 349.089 478.58C354.737 475.218 361.359 473.537 368.957 473.537C374.067 473.537 378.824 474.361 383.228 476.008C387.665 477.621 391.531 480.059 394.826 483.32C398.154 486.58 400.742 490.682 402.591 495.624C404.44 500.532 405.365 506.28 405.365 512.869V518.769H339.962V505.457H385.144C385.144 502.364 384.471 499.624 383.127 497.237C381.782 494.85 379.916 492.985 377.529 491.64C375.176 490.262 372.436 489.572 369.31 489.572C366.049 489.572 363.158 490.329 360.637 491.842C358.149 493.321 356.199 495.321 354.787 497.842C353.375 500.33 352.652 503.103 352.619 506.163V518.82C352.619 522.652 353.325 525.963 354.737 528.754C356.182 531.544 358.216 533.695 360.838 535.208C363.46 536.721 366.57 537.477 370.167 537.477C372.554 537.477 374.739 537.141 376.723 536.469C378.706 535.796 380.404 534.788 381.816 533.443C383.228 532.098 384.303 530.451 385.043 528.501L404.911 529.812C403.902 534.586 401.835 538.755 398.708 542.318C395.616 545.848 391.615 548.605 386.707 550.588C381.832 552.538 376.201 553.513 369.814 553.513ZM446.972 448.727H473.899L502.34 518.114H503.55L531.99 448.727H558.918V552H537.739V484.782H536.882L510.156 551.496H495.734L469.008 484.53H468.151V552H446.972V448.727ZM586.926 581.045C584.203 581.045 581.648 580.827 579.261 580.39C576.908 579.987 574.958 579.465 573.412 578.827L578.253 562.791C580.774 563.564 583.043 563.985 585.06 564.052C587.111 564.119 588.876 563.648 590.355 562.64C591.868 561.631 593.095 559.917 594.036 557.496L595.297 554.219L567.512 474.545H590.103L606.138 531.426H606.945L623.132 474.545H645.874L615.77 560.371C614.324 564.539 612.358 568.17 609.87 571.263C607.416 574.389 604.306 576.793 600.541 578.474C596.776 580.188 592.238 581.045 586.926 581.045ZM89.6004 682V578.727H130.345C138.178 578.727 144.851 580.223 150.364 583.215C155.877 586.174 160.079 590.292 162.97 595.57C165.895 600.814 167.358 606.865 167.358 613.723C167.358 620.581 165.878 626.632 162.92 631.876C159.962 637.121 155.675 641.205 150.061 644.13C144.481 647.055 137.724 648.517 129.79 648.517H103.821V631.019H126.26C130.462 631.019 133.925 630.296 136.648 628.851C139.405 627.372 141.455 625.338 142.8 622.749C144.178 620.127 144.867 617.118 144.867 613.723C144.867 610.294 144.178 607.302 142.8 604.747C141.455 602.159 139.405 600.158 136.648 598.746C133.891 597.301 130.395 596.578 126.159 596.578H111.435V682H89.6004ZM178.296 682V604.545H199.122V618.06H199.929C201.341 613.252 203.711 609.622 207.039 607.168C210.367 604.68 214.2 603.436 218.537 603.436C219.612 603.436 220.772 603.503 222.016 603.638C223.26 603.772 224.352 603.957 225.294 604.192V623.254C224.285 622.951 222.89 622.682 221.108 622.447C219.327 622.211 217.696 622.094 216.217 622.094C213.057 622.094 210.233 622.783 207.745 624.161C205.291 625.506 203.341 627.388 201.896 629.809C200.484 632.229 199.778 635.02 199.778 638.18V682H178.296ZM264.95 683.513C257.117 683.513 250.343 681.849 244.629 678.521C238.947 675.159 234.56 670.486 231.467 664.502C228.375 658.485 226.828 651.509 226.828 643.575C226.828 635.574 228.375 628.582 231.467 622.598C234.56 616.58 238.947 611.908 244.629 608.58C250.343 605.218 257.117 603.537 264.95 603.537C272.783 603.537 279.54 605.218 285.222 608.58C290.937 611.908 295.34 616.58 298.433 622.598C301.526 628.582 303.072 635.574 303.072 643.575C303.072 651.509 301.526 658.485 298.433 664.502C295.34 670.486 290.937 675.159 285.222 678.521C279.54 681.849 272.783 683.513 264.95 683.513ZM265.051 666.872C268.615 666.872 271.59 665.864 273.977 663.847C276.363 661.796 278.162 659.006 279.372 655.476C280.616 651.946 281.238 647.929 281.238 643.424C281.238 638.919 280.616 634.902 279.372 631.372C278.162 627.842 276.363 625.052 273.977 623.001C271.59 620.951 268.615 619.925 265.051 619.925C261.454 619.925 258.428 620.951 255.974 623.001C253.554 625.052 251.722 627.842 250.478 631.372C249.268 634.902 248.663 638.919 248.663 643.424C248.663 647.929 249.268 651.946 250.478 655.476C251.722 659.006 253.554 661.796 255.974 663.847C258.428 665.864 261.454 666.872 265.051 666.872ZM314.2 711.045V604.545H335.379V617.555H336.338C337.279 615.471 338.64 613.353 340.422 611.202C342.237 609.017 344.591 607.201 347.482 605.756C350.406 604.277 354.037 603.537 358.374 603.537C364.021 603.537 369.232 605.016 374.006 607.974C378.78 610.899 382.595 615.32 385.453 621.237C388.31 627.12 389.739 634.499 389.739 643.374C389.739 652.013 388.344 659.308 385.553 665.259C382.797 671.175 379.032 675.663 374.258 678.722C369.518 681.748 364.206 683.261 358.323 683.261C354.155 683.261 350.608 682.571 347.683 681.193C344.792 679.815 342.422 678.084 340.573 675.999C338.724 673.881 337.312 671.747 336.338 669.595H335.682V711.045H314.2ZM335.228 643.273C335.228 647.878 335.867 651.896 337.144 655.325C338.422 658.754 340.271 661.426 342.691 663.342C345.112 665.225 348.053 666.166 351.516 666.166C355.012 666.166 357.97 665.208 360.391 663.292C362.811 661.342 364.643 658.653 365.887 655.224C367.165 651.761 367.803 647.777 367.803 643.273C367.803 638.802 367.181 634.868 365.938 631.473C364.694 628.078 362.862 625.422 360.441 623.506C358.021 621.589 355.046 620.631 351.516 620.631C348.02 620.631 345.061 621.556 342.641 623.405C340.254 625.254 338.422 627.876 337.144 631.271C335.867 634.667 335.228 638.667 335.228 643.273ZM436.518 683.513C428.551 683.513 421.693 681.899 415.944 678.672C410.229 675.411 405.825 670.805 402.733 664.855C399.64 658.871 398.093 651.795 398.093 643.626C398.093 635.658 399.64 628.666 402.733 622.648C405.825 616.631 410.179 611.941 415.793 608.58C421.441 605.218 428.063 603.537 435.661 603.537C440.771 603.537 445.528 604.361 449.931 606.008C454.369 607.621 458.235 610.059 461.53 613.32C464.858 616.58 467.446 620.682 469.295 625.624C471.144 630.532 472.069 636.28 472.069 642.869V648.769H406.666V635.457H451.848C451.848 632.364 451.175 629.624 449.831 627.237C448.486 624.85 446.62 622.985 444.233 621.64C441.88 620.262 439.14 619.572 436.014 619.572C432.753 619.572 429.862 620.329 427.341 621.842C424.853 623.321 422.903 625.321 421.491 627.842C420.079 630.33 419.356 633.103 419.323 636.163V648.82C419.323 652.652 420.029 655.963 421.441 658.754C422.886 661.544 424.92 663.695 427.542 665.208C430.164 666.721 433.274 667.477 436.871 667.477C439.258 667.477 441.443 667.141 443.427 666.469C445.41 665.796 447.108 664.788 448.52 663.443C449.931 662.098 451.007 660.451 451.747 658.501L471.615 659.812C470.606 664.586 468.539 668.755 465.412 672.318C462.32 675.848 458.319 678.605 453.411 680.588C448.536 682.538 442.905 683.513 436.518 683.513ZM483.247 682V604.545H504.073V618.06H504.88C506.292 613.252 508.662 609.622 511.99 607.168C515.318 604.68 519.15 603.436 523.487 603.436C524.563 603.436 525.723 603.503 526.966 603.638C528.21 603.772 529.303 603.957 530.244 604.192V623.254C529.236 622.951 527.841 622.682 526.059 622.447C524.277 622.211 522.647 622.094 521.167 622.094C518.007 622.094 515.184 622.783 512.696 624.161C510.242 625.506 508.292 627.388 506.846 629.809C505.435 632.229 504.729 635.02 504.729 638.18V682H483.247ZM583.591 604.545V620.682H536.947V604.545H583.591ZM547.537 585.989H569.018V658.199C569.018 660.182 569.321 661.729 569.926 662.838C570.531 663.914 571.372 664.67 572.447 665.107C573.557 665.544 574.834 665.763 576.28 665.763C577.288 665.763 578.297 665.679 579.305 665.511C580.314 665.309 581.087 665.158 581.625 665.057L585.003 681.042C583.928 681.378 582.415 681.765 580.465 682.202C578.515 682.672 576.145 682.958 573.355 683.059C568.178 683.261 563.64 682.571 559.74 680.991C555.874 679.411 552.865 676.957 550.714 673.629C548.562 670.301 547.503 666.099 547.537 661.023V585.989ZM608.007 711.045C605.284 711.045 602.729 710.827 600.342 710.39C597.989 709.987 596.039 709.465 594.493 708.827L599.334 692.791C601.855 693.564 604.124 693.985 606.141 694.052C608.192 694.119 609.957 693.648 611.436 692.64C612.949 691.631 614.176 689.917 615.117 687.496L616.378 684.219L588.593 604.545H611.184L627.219 661.426H628.026L644.213 604.545H666.955L636.851 690.371C635.405 694.539 633.438 698.17 630.951 701.263C628.497 704.389 625.387 706.793 621.622 708.474C617.857 710.188 613.318 711.045 608.007 711.045Z" fill="white"/>
<g clip-path="url(#clip0_29_3749)">
<path d="M475 78H275C241.863 78 215 104.863 215 138V338C215 371.137 241.863 398 275 398H475C508.137 398 535 371.137 535 338V138C535 104.863 508.137 78 475 78Z" fill="#0059B3"/>
<path d="M377.764 141.892C376.218 140.414 373.782 140.414 372.236 141.892L291.236 219.318C290.447 220.073 290 221.118 290 222.21V314C290 316.209 291.791 318 294 318H456C458.209 318 460 316.209 460 314V222.21C460 221.118 459.553 220.073 458.764 219.318L377.764 141.892Z" stroke="white" stroke-width="20" stroke-linejoin="round"/>
<path d="M340 257.375L365 282.375L415 232.375" stroke="white" stroke-width="16" stroke-linecap="round" stroke-linejoin="round"/>
</g>
<defs>
<clipPath id="clip0_29_3749">
<rect width="320" height="320" fill="white" transform="translate(215 78)"/>
</clipPath>
</defs>
</svg>
