<svg width="1016" height="320" viewBox="0 0 1016 320" fill="none" xmlns="http://www.w3.org/2000/svg">
<g clip-path="url(#clip0_30_3765)">
<path d="M260 0H60C26.8629 0 0 26.8629 0 60V260C0 293.137 26.8629 320 60 320H260C293.137 320 320 293.137 320 260V60C320 26.8629 293.137 0 260 0Z" fill="#0059B3"/>
<path d="M162.764 63.892C161.218 62.414 158.782 62.414 157.236 63.892L76.2361 141.318C75.4466 142.073 75 143.118 75 144.21V236C75 238.209 76.7909 240 79 240H241C243.209 240 245 238.209 245 236V144.21C245 143.118 244.553 142.073 243.764 141.318L162.764 63.892Z" stroke="white" stroke-width="20" stroke-linejoin="round"/>
<path d="M125 179.375L150 204.375L200 154.375" stroke="white" stroke-width="16" stroke-linecap="round" stroke-linejoin="round"/>
</g>
<path d="M406.521 141V37.7273H447.266C455.065 37.7273 461.721 39.1224 467.234 41.9126C472.781 44.6693 477 48.5857 479.891 53.6619C482.816 58.7045 484.278 64.638 484.278 71.4624C484.278 78.3203 482.799 84.2202 479.841 89.1619C476.883 94.0701 472.596 97.8352 466.982 100.457C461.402 103.08 454.645 104.391 446.711 104.391H419.43V86.8423H443.181C447.35 86.8423 450.812 86.2708 453.569 85.1278C456.326 83.9848 458.376 82.2704 459.721 79.9844C461.099 77.6984 461.788 74.8577 461.788 71.4624C461.788 68.0334 461.099 65.1423 459.721 62.7891C458.376 60.4358 456.309 58.6541 453.518 57.4439C450.762 56.2 447.282 55.5781 443.08 55.5781H428.356V141H406.521ZM462.293 94.0028L487.96 141H463.856L438.744 94.0028H462.293ZM518.552 142.462C513.61 142.462 509.206 141.605 505.34 139.891C501.474 138.143 498.415 135.571 496.163 132.175C493.944 128.746 492.835 124.477 492.835 119.367C492.835 115.064 493.625 111.45 495.205 108.526C496.785 105.601 498.936 103.248 501.659 101.466C504.382 99.6842 507.475 98.3395 510.938 97.4318C514.434 96.5241 518.098 95.8854 521.931 95.5156C526.435 95.045 530.066 94.608 532.823 94.2045C535.579 93.7675 537.58 93.1288 538.823 92.2884C540.067 91.4479 540.689 90.2041 540.689 88.5568V88.2543C540.689 85.0606 539.681 82.5897 537.664 80.8416C535.68 79.0935 532.856 78.2195 529.192 78.2195C525.326 78.2195 522.25 79.0767 519.964 80.7912C517.678 82.4721 516.165 84.59 515.426 87.1449L495.558 85.5312C496.566 80.8248 498.55 76.7571 501.508 73.3281C504.466 69.8655 508.282 67.2097 512.955 65.3608C517.661 63.4782 523.107 62.5369 529.293 62.5369C533.596 62.5369 537.714 63.0412 541.647 64.0497C545.614 65.0582 549.127 66.6214 552.186 68.7393C555.279 70.8572 557.716 73.5803 559.498 76.9084C561.28 80.2029 562.171 84.1529 562.171 88.7585V141H541.799V130.259H541.193C539.95 132.68 538.285 134.814 536.201 136.663C534.117 138.479 531.612 139.907 528.688 140.95C525.763 141.958 522.384 142.462 518.552 142.462ZM524.704 127.637C527.864 127.637 530.654 127.015 533.075 125.771C535.495 124.494 537.395 122.779 538.773 120.628C540.151 118.476 540.84 116.039 540.84 113.316V105.097C540.168 105.534 539.244 105.937 538.067 106.307C536.924 106.643 535.63 106.962 534.184 107.265C532.739 107.534 531.293 107.786 529.848 108.021C528.402 108.223 527.091 108.408 525.914 108.576C523.393 108.946 521.191 109.534 519.308 110.341C517.426 111.148 515.964 112.24 514.921 113.619C513.879 114.963 513.358 116.644 513.358 118.661C513.358 121.586 514.417 123.821 516.535 125.368C518.687 126.881 521.41 127.637 524.704 127.637ZM617.195 63.5455V79.6818H570.55V63.5455H617.195ZM581.14 44.9886H602.622V117.199C602.622 119.182 602.924 120.729 603.529 121.838C604.134 122.914 604.975 123.67 606.05 124.107C607.16 124.544 608.437 124.763 609.883 124.763C610.891 124.763 611.9 124.679 612.908 124.511C613.917 124.309 614.69 124.158 615.228 124.057L618.607 140.042C617.531 140.378 616.018 140.765 614.068 141.202C612.118 141.672 609.748 141.958 606.958 142.059C601.781 142.261 597.243 141.571 593.343 139.991C589.477 138.411 586.468 135.957 584.317 132.629C582.165 129.301 581.106 125.099 581.14 120.023V44.9886ZM662.814 142.513C654.847 142.513 647.989 140.899 642.24 137.672C636.525 134.411 632.121 129.805 629.029 123.855C625.936 117.871 624.389 110.795 624.389 102.626C624.389 94.6584 625.936 87.666 629.029 81.6484C632.121 75.6309 636.475 70.9413 642.089 67.5795C647.737 64.2178 654.359 62.5369 661.957 62.5369C667.067 62.5369 671.824 63.3606 676.228 65.0078C680.665 66.6214 684.531 69.0587 687.826 72.3196C691.154 75.5805 693.742 79.6818 695.591 84.6236C697.44 89.5317 698.365 95.2803 698.365 101.869V107.769H632.962V94.4567H678.144C678.144 91.3639 677.471 88.6241 676.127 86.2372C674.782 83.8504 672.916 81.9846 670.529 80.6399C668.176 79.2616 665.436 78.5724 662.31 78.5724C659.049 78.5724 656.158 79.3288 653.637 80.8416C651.149 82.3208 649.199 84.321 647.787 86.8423C646.375 89.33 645.652 92.1035 645.619 95.1626V107.82C645.619 111.652 646.325 114.963 647.737 117.754C649.182 120.544 651.216 122.695 653.838 124.208C656.46 125.721 659.57 126.477 663.167 126.477C665.554 126.477 667.739 126.141 669.723 125.469C671.706 124.796 673.404 123.788 674.816 122.443C676.228 121.098 677.303 119.451 678.043 117.501L697.911 118.812C696.902 123.586 694.835 127.755 691.708 131.318C688.616 134.848 684.615 137.605 679.707 139.588C674.832 141.538 669.201 142.513 662.814 142.513ZM739.972 37.7273H766.899L795.34 107.114H796.55L824.99 37.7273H851.918V141H830.739V73.782H829.882L803.156 140.496H788.734L762.008 73.5298H761.151V141H739.972V37.7273ZM879.926 170.045C877.203 170.045 874.648 169.827 872.261 169.39C869.908 168.987 867.958 168.465 866.412 167.827L871.253 151.791C873.774 152.564 876.043 152.985 878.06 153.052C880.111 153.119 881.876 152.648 883.355 151.64C884.868 150.631 886.095 148.917 887.036 146.496L888.297 143.219L860.512 63.5455H883.103L899.138 120.426H899.945L916.132 63.5455H938.874L908.77 149.371C907.324 153.539 905.358 157.17 902.87 160.263C900.416 163.389 897.306 165.793 893.541 167.474C889.776 169.188 885.238 170.045 879.926 170.045ZM382.6 271V167.727H423.345C431.178 167.727 437.851 169.223 443.364 172.215C448.877 175.174 453.079 179.292 455.97 184.57C458.895 189.814 460.358 195.865 460.358 202.723C460.358 209.581 458.878 215.632 455.92 220.876C452.962 226.121 448.675 230.205 443.061 233.13C437.481 236.055 430.724 237.517 422.79 237.517H396.821V220.019H419.26C423.462 220.019 426.925 219.296 429.648 217.851C432.405 216.372 434.455 214.338 435.8 211.749C437.178 209.127 437.867 206.118 437.867 202.723C437.867 199.294 437.178 196.302 435.8 193.747C434.455 191.159 432.405 189.158 429.648 187.746C426.891 186.301 423.395 185.578 419.159 185.578H404.435V271H382.6ZM471.296 271V193.545H492.122V207.06H492.929C494.341 202.252 496.711 198.622 500.039 196.168C503.367 193.68 507.2 192.436 511.537 192.436C512.612 192.436 513.772 192.503 515.016 192.638C516.26 192.772 517.352 192.957 518.294 193.192V212.254C517.285 211.951 515.89 211.682 514.108 211.447C512.327 211.211 510.696 211.094 509.217 211.094C506.057 211.094 503.233 211.783 500.745 213.161C498.291 214.506 496.341 216.388 494.896 218.809C493.484 221.229 492.778 224.02 492.778 227.18V271H471.296ZM557.95 272.513C550.117 272.513 543.343 270.849 537.629 267.521C531.947 264.159 527.56 259.486 524.467 253.502C521.375 247.485 519.828 240.509 519.828 232.575C519.828 224.574 521.375 217.582 524.467 211.598C527.56 205.58 531.947 200.908 537.629 197.58C543.343 194.218 550.117 192.537 557.95 192.537C565.783 192.537 572.54 194.218 578.222 197.58C583.937 200.908 588.34 205.58 591.433 211.598C594.526 217.582 596.072 224.574 596.072 232.575C596.072 240.509 594.526 247.485 591.433 253.502C588.34 259.486 583.937 264.159 578.222 267.521C572.54 270.849 565.783 272.513 557.95 272.513ZM558.051 255.872C561.615 255.872 564.59 254.864 566.977 252.847C569.363 250.796 571.162 248.006 572.372 244.476C573.616 240.946 574.238 236.929 574.238 232.424C574.238 227.919 573.616 223.902 572.372 220.372C571.162 216.842 569.363 214.052 566.977 212.001C564.59 209.951 561.615 208.925 558.051 208.925C554.454 208.925 551.428 209.951 548.974 212.001C546.554 214.052 544.722 216.842 543.478 220.372C542.268 223.902 541.663 227.919 541.663 232.424C541.663 236.929 542.268 240.946 543.478 244.476C544.722 248.006 546.554 250.796 548.974 252.847C551.428 254.864 554.454 255.872 558.051 255.872ZM607.2 300.045V193.545H628.379V206.555H629.338C630.279 204.471 631.64 202.353 633.422 200.202C635.237 198.017 637.591 196.201 640.482 194.756C643.406 193.277 647.037 192.537 651.374 192.537C657.021 192.537 662.232 194.016 667.006 196.974C671.78 199.899 675.595 204.32 678.453 210.237C681.31 216.12 682.739 223.499 682.739 232.374C682.739 241.013 681.344 248.308 678.553 254.259C675.797 260.175 672.032 264.663 667.258 267.722C662.518 270.748 657.206 272.261 651.323 272.261C647.155 272.261 643.608 271.571 640.683 270.193C637.792 268.815 635.422 267.084 633.573 264.999C631.724 262.881 630.312 260.747 629.338 258.595H628.682V300.045H607.2ZM628.228 232.273C628.228 236.878 628.867 240.896 630.144 244.325C631.422 247.754 633.271 250.426 635.691 252.342C638.112 254.225 641.053 255.166 644.516 255.166C648.012 255.166 650.97 254.208 653.391 252.292C655.811 250.342 657.643 247.653 658.887 244.224C660.165 240.761 660.803 236.777 660.803 232.273C660.803 227.802 660.181 223.868 658.938 220.473C657.694 217.078 655.862 214.422 653.441 212.506C651.021 210.589 648.046 209.631 644.516 209.631C641.02 209.631 638.061 210.556 635.641 212.405C633.254 214.254 631.422 216.876 630.144 220.271C628.867 223.667 628.228 227.667 628.228 232.273ZM729.518 272.513C721.551 272.513 714.693 270.899 708.944 267.672C703.229 264.411 698.825 259.805 695.733 253.855C692.64 247.871 691.093 240.795 691.093 232.626C691.093 224.658 692.64 217.666 695.733 211.648C698.825 205.631 703.179 200.941 708.793 197.58C714.441 194.218 721.063 192.537 728.661 192.537C733.771 192.537 738.528 193.361 742.931 195.008C747.369 196.621 751.235 199.059 754.53 202.32C757.858 205.58 760.446 209.682 762.295 214.624C764.144 219.532 765.069 225.28 765.069 231.869V237.769H699.666V224.457H744.848C744.848 221.364 744.175 218.624 742.831 216.237C741.486 213.85 739.62 211.985 737.233 210.64C734.88 209.262 732.14 208.572 729.014 208.572C725.753 208.572 722.862 209.329 720.341 210.842C717.853 212.321 715.903 214.321 714.491 216.842C713.079 219.33 712.356 222.103 712.323 225.163V237.82C712.323 241.652 713.029 244.963 714.441 247.754C715.886 250.544 717.92 252.695 720.542 254.208C723.164 255.721 726.274 256.477 729.871 256.477C732.258 256.477 734.443 256.141 736.427 255.469C738.41 254.796 740.108 253.788 741.52 252.443C742.931 251.098 744.007 249.451 744.747 247.501L764.615 248.812C763.606 253.586 761.539 257.755 758.412 261.318C755.32 264.848 751.319 267.605 746.411 269.588C741.536 271.538 735.905 272.513 729.518 272.513ZM776.247 271V193.545H797.073V207.06H797.88C799.292 202.252 801.662 198.622 804.99 196.168C808.318 193.68 812.15 192.436 816.487 192.436C817.563 192.436 818.723 192.503 819.966 192.638C821.21 192.772 822.303 192.957 823.244 193.192V212.254C822.236 211.951 820.841 211.682 819.059 211.447C817.277 211.211 815.647 211.094 814.167 211.094C811.007 211.094 808.184 211.783 805.696 213.161C803.242 214.506 801.292 216.388 799.846 218.809C798.435 221.229 797.729 224.02 797.729 227.18V271H776.247ZM876.591 193.545V209.682H829.947V193.545H876.591ZM840.537 174.989H862.018V247.199C862.018 249.182 862.321 250.729 862.926 251.838C863.531 252.914 864.372 253.67 865.447 254.107C866.557 254.544 867.834 254.763 869.28 254.763C870.288 254.763 871.297 254.679 872.305 254.511C873.314 254.309 874.087 254.158 874.625 254.057L878.003 270.042C876.928 270.378 875.415 270.765 873.465 271.202C871.515 271.672 869.145 271.958 866.355 272.059C861.178 272.261 856.64 271.571 852.74 269.991C848.874 268.411 845.865 265.957 843.714 262.629C841.562 259.301 840.503 255.099 840.537 250.023V174.989ZM901.007 300.045C898.284 300.045 895.729 299.827 893.342 299.39C890.989 298.987 889.039 298.465 887.493 297.827L892.334 281.791C894.855 282.564 897.124 282.985 899.141 283.052C901.192 283.119 902.957 282.648 904.436 281.64C905.949 280.631 907.176 278.917 908.117 276.496L909.378 273.219L881.593 193.545H904.184L920.219 250.426H921.026L937.213 193.545H959.955L929.851 279.371C928.405 283.539 926.438 287.17 923.951 290.263C921.497 293.389 918.387 295.793 914.622 297.474C910.857 299.188 906.318 300.045 901.007 300.045Z" fill="#0059B3"/>
<defs>
<clipPath id="clip0_30_3765">
<rect width="320" height="320" fill="white"/>
</clipPath>
</defs>
</svg>
